<svg width="44" height="44" viewBox="0 0 44 44" fill="none" xmlns="http://www.w3.org/2000/svg">
<path d="M22 17.4532C21.1008 17.4532 20.2217 17.7198 19.474 18.2194C18.7263 18.719 18.1436 19.4291 17.7994 20.2599C17.4553 21.0907 17.3653 22.0049 17.5407 22.8868C17.7162 23.7688 18.1492 24.579 18.785 25.2148C19.4209 25.8507 20.231 26.2837 21.113 26.4591C21.995 26.6346 22.9092 26.5445 23.74 26.2004C24.5707 25.8563 25.2808 25.2735 25.7804 24.5258C26.28 23.7781 26.5467 22.8991 26.5467 21.9998C26.5467 21.4028 26.4291 20.8115 26.2006 20.2599C25.9721 19.7083 25.6372 19.2071 25.215 18.7849C24.7928 18.3627 24.2916 18.0278 23.74 17.7993C23.1883 17.5708 22.5971 17.4532 22 17.4532ZM40.205 12.9615C40.1954 11.5457 39.9347 10.1429 39.435 8.81817C39.067 7.84881 38.4977 6.96851 37.7645 6.23534C37.0313 5.50218 36.151 4.93282 35.1817 4.56484C33.857 4.06519 32.4541 3.80448 31.0384 3.79484C28.6734 3.6665 27.9767 3.6665 22 3.6665C16.0234 3.6665 15.3267 3.6665 12.9617 3.79484C11.5459 3.80448 10.1431 4.06519 8.81835 4.56484C7.849 4.93282 6.96869 5.50218 6.23553 6.23534C5.50236 6.96851 4.933 7.84881 4.56502 8.81817C4.06537 10.1429 3.80467 11.5457 3.79502 12.9615C3.66669 15.3265 3.66669 16.0232 3.66669 21.9998C3.66669 27.9765 3.66669 28.6732 3.79502 31.0382C3.81475 32.4589 4.07511 33.8661 4.56502 35.1998C4.93137 36.1648 5.50026 37.04 6.23335 37.7665C6.96338 38.5041 7.84557 39.0734 8.81835 39.4348C10.1431 39.9345 11.5459 40.1952 12.9617 40.2048C15.3267 40.3332 16.0234 40.3332 22 40.3332C27.9767 40.3332 28.6734 40.3332 31.0384 40.2048C32.4541 40.1952 33.857 39.9345 35.1817 39.4348C36.1545 39.0734 37.0367 38.5041 37.7667 37.7665C38.4998 37.04 39.0687 36.1648 39.435 35.1998C39.9342 33.8686 40.1948 32.4599 40.205 31.0382C40.3334 28.6732 40.3334 27.9765 40.3334 21.9998C40.3334 16.0232 40.3334 15.3265 40.205 12.9615ZM35.5484 27.6282C35.4895 28.7595 35.2481 29.8739 34.8334 30.9282C34.4774 31.8076 33.9483 32.6065 33.2775 33.2773C32.6067 33.9482 31.8078 34.4773 30.9284 34.8332C29.8641 35.2248 28.7435 35.4415 27.61 35.4748C26.1617 35.4748 25.7767 35.4748 22 35.4748C18.2234 35.4748 17.8384 35.4748 16.39 35.4748C15.2565 35.4415 14.1359 35.2248 13.0717 34.8332C12.1625 34.4953 11.3415 33.9563 10.67 33.2565C10.0057 32.5988 9.49273 31.8043 9.16669 30.9282C8.77354 29.865 8.5628 28.7432 8.54335 27.6098C8.54335 26.1615 8.54335 25.7765 8.54335 21.9998C8.54335 18.2232 8.54335 17.8382 8.54335 16.3898C8.5628 15.2565 8.77354 14.1346 9.16669 13.0715C9.50454 12.1624 10.0435 11.3413 10.7434 10.6698C11.404 10.0091 12.1977 9.49668 13.0717 9.1665C14.1359 8.77491 15.2565 8.55822 16.39 8.52484C17.8384 8.52484 18.2234 8.52484 22 8.52484C25.7767 8.52484 26.1617 8.52484 27.61 8.52484C28.7435 8.55822 29.8641 8.77491 30.9284 9.1665C31.8375 9.50435 32.6585 10.0433 33.33 10.7432C33.9943 11.4009 34.5073 12.1954 34.8334 13.0715C35.2249 14.1357 35.4416 15.2563 35.475 16.3898C35.475 17.8382 35.475 18.2232 35.475 21.9998C35.475 25.7765 35.6034 26.1615 35.5484 27.6098V27.6282ZM32.615 13.9882C32.3967 13.396 32.0526 12.8582 31.6063 12.4119C31.16 11.9656 30.6222 11.6215 30.03 11.4032C29.2169 11.1213 28.3605 10.9848 27.5 10.9998C26.07 10.9998 25.6667 10.9998 22 10.9998C18.3334 10.9998 17.93 10.9998 16.5 10.9998C15.6352 11.0083 14.7786 11.1697 13.97 11.4765C13.3869 11.6849 12.8548 12.015 12.4091 12.4449C11.9634 12.8748 11.6143 13.3946 11.385 13.9698C11.1188 14.7863 10.9887 15.6411 11 16.4998C11 17.9298 11 18.3332 11 21.9998C11 25.6665 11 26.0698 11 27.4998C11.0182 28.3637 11.1793 29.2186 11.4767 30.0298C11.695 30.622 12.0391 31.1598 12.4854 31.6061C12.9317 32.0524 13.4695 32.3966 14.0617 32.6148C14.8439 32.9025 15.6671 33.0634 16.5 33.0915C17.93 33.0915 18.3334 33.0915 22 33.0915C25.6667 33.0915 26.07 33.0915 27.5 33.0915C28.3649 33.083 29.2214 32.9217 30.03 32.6148C30.6222 32.3966 31.16 32.0524 31.6063 31.6061C32.0526 31.1598 32.3967 30.622 32.615 30.0298C32.9219 29.2212 33.0832 28.3647 33.0917 27.4998C33.0917 26.0698 33.0917 25.6665 33.0917 21.9998C33.0917 18.3332 33.0917 17.9298 33.0917 16.4998C33.0922 15.6341 32.9305 14.776 32.615 13.9698V13.9882ZM22 29.0032C21.0812 29.0032 20.1714 28.8219 19.3227 28.4697C18.4741 28.1175 17.7032 27.6014 17.0544 26.9508C16.4055 26.3003 15.8914 25.5281 15.5415 24.6785C15.1915 23.8289 15.0126 22.9187 15.015 21.9998C15.015 20.6139 15.4262 19.2592 16.1966 18.1071C16.9669 16.955 18.0618 16.0574 19.3425 15.5279C20.6233 14.9983 22.0324 14.8607 23.3914 15.1324C24.7504 15.4042 25.9982 16.073 26.9769 17.0542C27.9556 18.0355 28.6212 19.2851 28.8893 20.6448C29.1575 22.0045 29.0162 23.4133 28.4833 24.6926C27.9504 25.972 27.0499 27.0645 25.8958 27.8318C24.7417 28.5991 23.3859 29.0068 22 29.0032ZM29.3334 16.3715C28.9281 16.3286 28.553 16.1372 28.2804 15.8343C28.0079 15.5313 27.857 15.1382 27.857 14.7307C27.857 14.3231 28.0079 13.93 28.2804 13.6271C28.553 13.3241 28.9281 13.1327 29.3334 13.0898C29.7386 13.1327 30.1137 13.3241 30.3863 13.6271C30.6588 13.93 30.8097 14.3231 30.8097 14.7307C30.8097 15.1382 30.6588 15.5313 30.3863 15.8343C30.1137 16.1372 29.7386 16.3286 29.3334 16.3715Z" fill="#0A663A"/>
</svg>
