<svg width="44" height="44" viewBox="0 0 44 44" fill="none" xmlns="http://www.w3.org/2000/svg">
<path d="M40.3333 12.0082C40.3127 11.2172 40.2515 10.4278 40.15 9.64317C40.0131 8.9559 39.785 8.29 39.4717 7.66317C39.144 6.9832 38.7039 6.36339 38.17 5.82984C37.6312 5.30221 37.0124 4.86292 36.3367 4.52817C35.709 4.22099 35.0431 3.99902 34.3567 3.86817C33.5794 3.75175 32.7957 3.6844 32.01 3.6665H12.0083C11.2174 3.6871 10.428 3.7483 9.64332 3.84984C8.95605 3.98673 8.29016 4.21486 7.66332 4.52817C6.98335 4.85585 6.36354 5.29592 5.82999 5.82984C5.30236 6.36867 4.86307 6.98739 4.52832 7.66317C4.22114 8.29084 3.99917 8.95673 3.86832 9.64317C3.75191 10.4204 3.68455 11.2042 3.66666 11.9898C3.66666 12.3382 3.66666 12.8332 3.66666 12.9798V31.0198C3.66666 31.2215 3.66666 31.6615 3.66666 31.9915C3.68726 32.7825 3.74845 33.5718 3.84999 34.3565C3.98688 35.0438 4.21501 35.7097 4.52832 36.3365C4.85601 37.0165 5.29607 37.6363 5.82999 38.1698C6.36883 38.6975 6.98755 39.1368 7.66332 39.4715C8.29099 39.7787 8.95688 40.0006 9.64332 40.1315C10.4205 40.2479 11.2043 40.3153 11.99 40.3332H31.9917C32.7826 40.3126 33.572 40.2514 34.3567 40.1498C35.0439 40.0129 35.7098 39.7848 36.3367 39.4715C37.0166 39.1438 37.6364 38.7038 38.17 38.1698C38.6976 37.631 39.1369 37.0123 39.4717 36.3365C39.7788 35.7088 40.0008 35.0429 40.1317 34.3565C40.2481 33.5793 40.3154 32.7955 40.3333 32.0098C40.3333 31.6615 40.3333 31.2215 40.3333 31.0198V12.9798C40.3333 12.8332 40.3333 12.3382 40.3333 12.0082ZM22.4217 34.8332C20.2199 34.8223 18.0567 34.2547 16.1333 33.1832L9.16666 35.0165L11 28.1965C9.8177 26.21 9.18496 23.9448 9.16666 21.6332C9.17396 19.0352 9.94986 16.4975 11.3966 14.3396C12.8434 12.1818 14.8964 10.5003 17.297 9.50698C19.6976 8.51366 22.3384 8.2529 24.8869 8.75756C27.4354 9.26222 29.7776 10.5097 31.6184 12.3429C33.4593 14.1762 34.7165 16.5131 35.2318 19.0595C35.747 21.6059 35.4973 24.2478 34.5139 26.6525C33.5306 29.0572 31.8577 31.1171 29.7059 32.5729C27.554 34.0286 25.0196 34.8151 22.4217 34.8332ZM22.4217 10.7615C20.478 10.7837 18.5749 11.3206 16.9062 12.3175C15.2375 13.3144 13.8627 14.7357 12.9219 16.4366C11.981 18.1376 11.5077 20.0575 11.5501 22.0008C11.5926 23.9442 12.1492 25.8416 13.1633 27.4998L13.42 27.9215L12.32 31.9365L16.5 30.7998L16.9033 31.0382C18.5709 32.0204 20.4681 32.5453 22.4033 32.5598C25.3207 32.5598 28.1186 31.4009 30.1815 29.338C32.2444 27.2751 33.4033 24.4772 33.4033 21.5598C33.4033 18.6425 32.2444 15.8446 30.1815 13.7817C28.1186 11.7188 25.3207 10.5598 22.4033 10.5598L22.4217 10.7615ZM28.8383 26.3815C28.5982 26.782 28.2767 27.1277 27.8946 27.3961C27.5124 27.6646 27.0782 27.8498 26.62 27.9398C25.9353 28.065 25.2304 28.0209 24.5667 27.8115C23.9421 27.6163 23.3299 27.3836 22.7333 27.1148C20.4668 25.9776 18.534 24.2721 17.1233 22.1648C16.3568 21.1885 15.8917 20.0098 15.785 18.7732C15.7741 18.2594 15.8713 17.7492 16.0702 17.2754C16.2692 16.8017 16.5655 16.375 16.94 16.0232C17.0503 15.8981 17.1856 15.7976 17.3372 15.7281C17.4888 15.6586 17.6533 15.6218 17.82 15.6198H18.3333C18.535 15.6198 18.81 15.6198 19.0667 16.1882C19.3233 16.7565 20.0017 18.4615 20.0933 18.6265C20.1384 18.7145 20.1619 18.8119 20.1619 18.9107C20.1619 19.0095 20.1384 19.1069 20.0933 19.1948C20.0123 19.3941 19.901 19.5796 19.7633 19.7448C19.5983 19.9465 19.415 20.1848 19.2683 20.3315C19.1217 20.4782 18.9383 20.6615 19.1217 20.9915C19.6205 21.8334 20.2379 22.599 20.955 23.2648C21.7359 23.9548 22.6286 24.5066 23.595 24.8965C23.925 25.0615 24.1267 25.0432 24.31 24.8965C24.4933 24.7498 25.135 23.9432 25.355 23.6132C25.575 23.2832 25.795 23.3382 26.0883 23.4482C26.3817 23.5582 28.0133 24.3465 28.3433 24.5115C28.6733 24.6765 28.875 24.7498 28.9667 24.8965C29.0462 25.3763 29.002 25.8685 28.8383 26.3265V26.3815Z" fill="#0A663A"/>
</svg>
