<svg width="44" height="44" fill="none" xmlns="http://www.w3.org/2000/svg"><path d="M22 3.666A17.691 17.691 0 003.667 21.45a17.435 17.435 0 005.756 13.163 1.485 1.485 0 01.495 1.027v3.263a1.485 1.485 0 002.072 1.302l3.667-1.595c.313-.118.658-.118.971 0 1.734.468 3.522.702 5.317.696A17.82 17.82 0 1022 3.666zm11 13.677l-5.372 8.543a2.75 2.75 0 01-3.978.734l-4.29-3.209a1.1 1.1 0 00-1.32 0l-5.793 4.4A.861.861 0 0111 26.656l5.372-8.543a2.75 2.75 0 013.978-.733l4.29 3.208a1.1 1.1 0 001.32 0l5.793-4.4A.862.862 0 0133 17.343z" fill="#0A663A"/></svg>