<svg width="44" height="44" fill="none" xmlns="http://www.w3.org/2000/svg"><path d="M22 17.453a4.547 4.547 0 100 9.094 4.547 4.547 0 000-9.094zm18.205-4.492a11.97 11.97 0 00-.77-4.143 7.333 7.333 0 00-4.253-4.253c-1.325-.5-2.728-.76-4.144-.77-2.365-.128-3.061-.128-9.038-.128s-6.673 0-9.038.128c-1.416.01-2.819.27-4.144.77a7.333 7.333 0 00-4.253 4.253c-.5 1.325-.76 2.728-.77 4.143-.128 2.365-.128 3.062-.128 9.039s0 6.673.128 9.038c.02 1.42.28 2.828.77 4.162.366.965.935 1.84 1.668 2.566a7.131 7.131 0 002.585 1.669c1.325.5 2.728.76 4.144.77 2.365.128 3.061.128 9.038.128s6.673 0 9.038-.128a11.97 11.97 0 004.144-.77 7.13 7.13 0 002.585-1.669 7.222 7.222 0 001.668-2.566c.5-1.331.76-2.74.77-4.162.128-2.365.128-3.061.128-9.038s0-6.674-.128-9.039zm-4.657 14.667a10.508 10.508 0 01-.715 3.3 7.078 7.078 0 01-3.905 3.905 10.503 10.503 0 01-3.318.642H16.39a10.502 10.502 0 01-3.318-.642 6.436 6.436 0 01-2.402-1.576 6.434 6.434 0 01-1.503-2.329 10.065 10.065 0 01-.624-3.318V16.39c.02-1.133.23-2.255.624-3.319a6.44 6.44 0 011.576-2.401 6.581 6.581 0 012.329-1.504 10.504 10.504 0 013.318-.641h11.22c1.134.033 2.254.25 3.318.641.91.338 1.73.877 2.402 1.577a6.435 6.435 0 011.503 2.329c.392 1.064.609 2.184.642 3.318V22c0 3.776.128 4.162.073 5.61v.018zm-2.933-13.64a4.363 4.363 0 00-2.585-2.585A7.333 7.333 0 0027.5 11h-11a7.335 7.335 0 00-2.53.476 4.364 4.364 0 00-2.585 2.494A7.83 7.83 0 0011 16.5v11a7.83 7.83 0 00.477 2.53 4.363 4.363 0 002.585 2.585 7.828 7.828 0 002.438.477h11a7.333 7.333 0 002.53-.477 4.362 4.362 0 002.585-2.585 7.333 7.333 0 00.477-2.53v-11a6.93 6.93 0 00-.477-2.53v.018zM22 29.003A6.985 6.985 0 0115.015 22 7.003 7.003 0 1122 29.003zm7.333-12.631a1.65 1.65 0 010-3.282 1.65 1.65 0 010 3.282z" fill="#0A663A"/></svg>