<svg width="44" height="44" fill="none" xmlns="http://www.w3.org/2000/svg"><path d="M40.333 12.008c-.02-.79-.081-1.58-.183-2.365a7.866 7.866 0 00-.678-1.98A6.71 6.71 0 0038.17 5.83a7.169 7.169 0 00-1.833-1.302 7.848 7.848 0 00-1.98-.66 18.72 18.72 0 00-2.347-.201H12.008c-.79.02-1.58.081-2.365.183a7.865 7.865 0 00-1.98.678A6.71 6.71 0 005.83 5.83a7.168 7.168 0 00-1.302 1.833 7.847 7.847 0 00-.66 1.98 18.72 18.72 0 00-.201 2.347v20c.02.791.081 1.58.183 2.365a7.86 7.86 0 00.678 1.98c.328.68.768 1.3 1.302 1.834a7.166 7.166 0 001.833 1.301c.628.308 1.294.53 1.98.66.777.117 1.561.184 2.347.202h20.002c.79-.02 1.58-.082 2.365-.183a7.868 7.868 0 001.98-.678 6.71 6.71 0 001.833-1.302 7.17 7.17 0 001.302-1.834 7.844 7.844 0 00.66-1.98c.116-.777.183-1.56.201-2.346V12.008zM22.422 34.833a13.054 13.054 0 01-6.289-1.65l-6.966 1.834L11 28.197a13.035 13.035 0 01-1.833-6.564 13.164 13.164 0 1113.255 13.2zm0-24.072A11 11 0 0013.163 27.5l.257.422-1.1 4.014L16.5 30.8l.403.238a11 11 0 005.5 1.522 11 11 0 100-22l.019.201zm6.416 15.62a3.336 3.336 0 01-2.218 1.559 4.271 4.271 0 01-2.053-.129 16.298 16.298 0 01-1.834-.696 14.666 14.666 0 01-5.61-4.95 6.38 6.38 0 01-1.338-3.392 3.668 3.668 0 011.155-2.75 1.191 1.191 0 01.88-.403h.513c.202 0 .477 0 .734.568.256.569.935 2.274 1.026 2.439a.623.623 0 010 .568c-.08.2-.192.385-.33.55-.165.201-.348.44-.495.586-.146.147-.33.33-.146.66a10.189 10.189 0 001.833 2.274 9.167 9.167 0 002.64 1.631c.33.165.532.147.715 0 .183-.146.825-.953 1.045-1.283.22-.33.44-.275.733-.165.294.11 1.925.898 2.255 1.064.33.165.532.238.624.384.08.48.035.973-.129 1.43v.055z" fill="#0A663A"/></svg>