<svg width="44" height="44" viewBox="0 0 44 44" fill="none" xmlns="http://www.w3.org/2000/svg">
<path d="M22 3.66644C19.6155 3.57986 17.2382 3.9765 15.011 4.83252C12.7838 5.68853 10.7528 6.98622 9.04009 8.64752C7.32741 10.3088 5.96847 12.2994 5.04504 14.4995C4.1216 16.6996 3.65275 19.0638 3.66669 21.4498C3.63596 23.9269 4.13349 26.3822 5.12612 28.652C6.11875 30.9217 7.5837 32.9539 9.42335 34.6131C9.56941 34.7432 9.68832 34.9009 9.77327 35.0771C9.85822 35.2532 9.90752 35.4445 9.91835 35.6398V38.9031C9.9284 39.1437 9.99679 39.3782 10.1176 39.5864C10.2385 39.7947 10.4081 39.9704 10.612 40.0985C10.8159 40.2266 11.0478 40.3032 11.2879 40.3217C11.528 40.3402 11.7689 40.3001 11.99 40.2048L15.6567 38.6098C15.9698 38.4915 16.3153 38.4915 16.6284 38.6098C18.3617 39.0776 20.1497 39.3119 21.945 39.3064C26.6712 39.3137 31.2067 37.4433 34.5537 34.1065C37.9008 30.7698 39.7852 26.2401 39.7925 21.5139C39.7998 16.7878 37.9294 12.2523 34.5926 8.90524C31.2559 5.55818 26.7262 3.67373 22 3.66644ZM33 17.3431L27.6284 25.8864C27.4258 26.2081 27.1587 26.4842 26.844 26.6975C26.5293 26.9107 26.1738 27.0564 25.8 27.1253C25.4261 27.1942 25.0421 27.1848 24.672 27.0978C24.302 27.0108 23.954 26.848 23.65 26.6198L19.36 23.4114C19.1696 23.2686 18.938 23.1914 18.7 23.1914C18.462 23.1914 18.2304 23.2686 18.04 23.4114L12.2467 27.8114C12.0853 27.9359 11.8851 27.9991 11.6816 27.9899C11.478 27.9807 11.2843 27.8997 11.1349 27.7612C10.9854 27.6227 10.8898 27.4358 10.8651 27.2335C10.8405 27.0313 10.8882 26.8268 11 26.6564L16.3717 18.1131C16.5743 17.7915 16.8414 17.5153 17.1561 17.3021C17.4708 17.0888 17.8262 16.9432 18.2001 16.8743C18.5739 16.8054 18.958 16.8147 19.328 16.9017C19.6981 16.9887 20.0461 17.1515 20.35 17.3798L24.64 20.5881C24.8304 20.7309 25.062 20.8081 25.3 20.8081C25.538 20.8081 25.7696 20.7309 25.96 20.5881L31.7534 16.1881C31.9147 16.0637 32.1149 16.0004 32.3185 16.0096C32.522 16.0188 32.7157 16.0999 32.8652 16.2383C33.0146 16.3768 33.1102 16.5638 33.1349 16.766C33.1596 16.9683 33.1118 17.1727 33 17.3431Z" fill="#0A663A"/>
</svg>
