<svg width="44" height="44" viewBox="0 0 44 44" fill="none" xmlns="http://www.w3.org/2000/svg">
<path d="M21.9896 3.6665C18.3636 3.6665 14.819 4.74174 11.8041 6.75623C8.78924 8.77072 6.43941 11.634 5.0518 14.984C3.66419 18.334 3.30113 22.0202 4.00853 25.5765C4.71592 29.1328 6.462 32.3995 9.02597 34.9635C11.5899 37.5274 14.8566 39.2735 18.4129 39.9809C21.9693 40.6883 25.6555 40.3252 29.0055 38.9376C32.3554 37.55 35.2187 35.2002 37.2332 32.1853C39.2477 29.1704 40.3229 25.6258 40.3229 21.9998C40.3231 19.5922 39.8491 17.2081 38.9278 14.9837C38.0065 12.7593 36.6561 10.7382 34.9537 9.03577C33.2512 7.33332 31.2301 5.9829 29.0057 5.06164C26.7813 4.14037 24.3972 3.6663 21.9896 3.6665ZM27.8187 31.446C27.7501 31.6171 27.6457 31.7716 27.5125 31.899C27.3793 32.0265 27.2204 32.124 27.0464 32.185C26.8724 32.2461 26.6875 32.2692 26.5038 32.2529C26.3202 32.2366 26.1422 32.1812 25.9817 32.0904L21.0048 28.2233L17.8105 31.1702C17.7364 31.2249 17.6497 31.2602 17.5584 31.2726C17.4671 31.2851 17.3741 31.2744 17.288 31.2416L17.9004 25.7627L17.92 25.7783L17.9325 25.6701C17.9325 25.6701 26.8883 17.5163 27.2532 17.1689C27.6225 16.8224 27.5007 16.7473 27.5007 16.7473C27.5217 16.3246 26.8379 16.7473 26.8379 16.7473L14.9716 24.3813L10.0299 22.6983C10.0299 22.6983 9.27086 22.4261 9.19936 21.8275C9.12419 21.2335 10.0546 20.9108 10.0546 20.9108L29.7024 13.1054C29.7024 13.1054 31.3176 12.3858 31.3176 13.5775L27.8187 31.446Z" fill="#0A663A"/>
</svg>
